<svg xmlns="http://www.w3.org/2000/svg" width="512" height="512" viewBox="0 0 512 512" version="1.1">
	<path d="M 144.609 54.708 C 142.707 60.873, 48.882 411.875, 48.711 413.463 C 48.523 415.211, 51.072 416.113, 71.968 421.695 C 84.875 425.143, 95.741 427.635, 96.113 427.232 C 96.486 426.829, 102.482 405.125, 109.439 379 C 116.396 352.875, 122.553 330.038, 123.121 328.250 L 124.155 325 188.380 325 L 252.604 325 266.300 376.165 C 273.833 404.306, 280.170 427.503, 280.382 427.715 C 280.594 427.927, 290.073 425.603, 301.447 422.550 C 312.820 419.498, 322.744 417, 323.500 417 C 324.256 417, 334.180 419.498, 345.553 422.550 C 356.927 425.603, 366.403 427.931, 366.610 427.724 C 367.005 427.328, 462.592 70.866, 463.168 67.640 C 463.459 66.008, 460.573 64.992, 439.621 59.353 C 426.487 55.818, 415.644 53.055, 415.525 53.213 C 415.406 53.371, 394.680 130.553, 369.467 224.730 C 344.255 318.906, 323.536 395.856, 323.425 395.730 C 323.314 395.603, 302.629 318.550, 277.457 224.500 C 252.285 130.450, 231.587 53.364, 231.460 53.198 C 231.334 53.033, 222.007 55.395, 210.735 58.448 C 199.462 61.502, 189.398 64, 188.369 63.999 C 186.917 63.998, 155.489 55.989, 146.831 53.413 C 145.803 53.107, 144.949 53.606, 144.609 54.708 M 186.671 91 C 182.843 104.195, 138 272.526, 138 273.699 C 138 274.750, 147.711 275, 188.500 275 C 216.275 275, 239 274.830, 239 274.622 C 239 274.169, 189.126 87.941, 188.618 86.500 C 188.425 85.950, 187.549 87.975, 186.671 91" stroke="none" fill="black" fill-rule="evenodd"/>
</svg>